<svg xmlns="http://www.w3.org/2000/svg" xmlns:xlink="http://www.w3.org/1999/xlink" width="16" height="17" viewBox="0 0 16 17">
    <defs>
        <path id="s1cw4b9tza" d="M7.012 12.252l-.001-3.26H3.745c-.547 0-.991-.445-.99-.992-.002-.547.442-.99.99-.99H7.01V3.745c0-.548.443-.992.99-.99.547-.001.992.443.991.99l.002 3.266h3.26c.546 0 .99.444.99.992 0 .547-.444.99-.99.99h-3.26v3.26c.001.547-.443.99-.99.99-.547 0-.991-.444-.991-.99z"/>
    </defs>
    <g fill="none" fill-rule="evenodd">
        <g>
            <g>
                <g>
                    <g transform="translate(-1266 -1917) translate(250 1868.896) translate(1010 45) translate(6 4)">
                        <mask id="xabyop6llb" fill="#fff">
                            <use xlink:href="#s1cw4b9tza"/>
                        </mask>
                        <use fill="#000" xlink:href="#s1cw4b9tza"/>
                        <g fill="#FFF" mask="url(#xabyop6llb)">
                            <path d="M0 0H23V23H0z"/>
                        </g>
                    </g>
                </g>
            </g>
        </g>
    </g>
</svg>
