<svg xmlns="http://www.w3.org/2000/svg" xmlns:xlink="http://www.w3.org/1999/xlink" width="16" height="17" viewBox="0 0 16 17">
    <defs>
        <path id="pkbxsog6sa" d="M10.237 1.987H5.806v-.445l.028-.138.133-.162.182-.056h3.733l.137.028.162.134.056.181v.458zm3.87 2.791l-.822 9.95c-.065.77-.746 1.396-1.518 1.397h-7.49c-.773 0-1.453-.628-1.518-1.398l-.823-9.949h12.17zm-3.253 1.22h-.024c-.22 0-.404.172-.417.394l-.436 7.382-.001.007v.025c0 .22.17.403.394.417h.024c.22 0 .405-.172.417-.395l.437-7.388v-.024c0-.22-.171-.404-.394-.418zm-2.832 0c-.231 0-.418.188-.42.418v7.39c.002.23.189.417.42.417.23 0 .418-.188.418-.418V6.416c0-.23-.188-.418-.418-.418zm-2.81 0H5.19c-.222.014-.394.198-.394.418v.024l.437 7.388c.013.223.198.395.418.395h.024c.222-.014.394-.198.394-.417l-.001-.018-.436-7.396c-.013-.222-.198-.394-.418-.394zM9.896 0c.315 0 .612.097.855.262.242.165.436.397.552.672.079.183.122.386.122.595v.458h2.683c.516 0 .937.421.937.936 0 .516-.421.937-.937.937H1.936C1.421 3.86 1 3.439 1 2.923c0-.515.421-.936.936-.936H4.62v-.458c0-.315.097-.611.262-.855.165-.243.397-.436.672-.553C5.737.043 5.939 0 6.149 0z"/>
    </defs>
    <g fill="none" fill-rule="evenodd">
        <g>
            <g>
                <g transform="translate(-1252 -2079) translate(250 1868.896) translate(1002 211)">
                    <mask id="25tkfsbm2b" fill="#fff">
                        <use xlink:href="#pkbxsog6sa"/>
                    </mask>
                    <use fill="#1D1D1B" xlink:href="#pkbxsog6sa"/>
                    <g fill="#9FA7BB" mask="url(#25tkfsbm2b)">
                        <path d="M0 0H25V25H0z"/>
                    </g>
                </g>
            </g>
        </g>
    </g>
</svg>
